<?xml version="1.0" encoding="utf-8"?>
<!-- Generator: Adobe Illustrator 23.0.3, SVG Export Plug-In . SVG Version: 6.00 Build 0)  -->
<svg version="1.1" id="Layer_1" xmlns="http://www.w3.org/2000/svg" xmlns:xlink="http://www.w3.org/1999/xlink" x="0px" y="0px"
	 viewBox="0 0 1920 1080" style="enable-background:new 0 0 1920 1080;" xml:space="preserve">
<style type="text/css">
	.st0{fill:#FFFFFF;}
	.st1{fill:#FFD022;}
</style>
<g>
	<path class="st0" d="M961.92,613.37c-33.22,0.14-59.55-9.8-80.75-31.37c-22.72-23.13-31.7-51.23-28.86-83.59
		c3.13-35.74,28.79-79.59,84.56-90.77c36.09-7.23,69.42,0.55,97.12,25.64c49.92,45.21,43.43,127.37-15.43,163.78
		C1000.3,608.34,980.42,613.96,961.92,613.37z M1011.4,510.65c0.37-14.48-3.82-26.96-12.84-37.78
		c-21.94-26.29-64.49-24.21-82.9,5.54c-12.49,20.18-10.81,48.42,4.01,66.94c22.95,28.67,67.54,24.69,85.03-7.58
		C1009.36,529.17,1011.64,520,1011.4,510.65z"/>
	<path class="st0" d="M1315.3,409.42c18.89-0.09,36.74-0.06,54.55-0.01c2.5,4.47,1.82,8.56,1.83,12.47
		c0.07,25.3,0.03,50.61,0.04,75.91c0,8.43-0.22,16.88,0.08,25.3c0.21,5.84,0.58,11.78,1.83,17.46c3.29,14.96,12.26,24.5,27.58,27.93
		c8.95,2,17.5,1.17,25.88-2.01c9.88-3.76,16.25-10.99,19.59-20.95c2.37-7.06,2.66-14.37,2.65-21.73
		c-0.03-33.74-0.03-67.48,0.03-101.22c0.01-3.95-0.63-8.02,1.11-12.45c6.09-1.43,12.3-0.58,18.42-0.73
		c5.86-0.15,11.73-0.04,17.6-0.03c6.2,0.02,12.41,0.06,19.27,0.09c0.48,3.45,1.2,6.27,1.2,9.09c0.07,35.94,0.17,71.88-0.07,107.82
		c-0.07,10.25-1.05,20.51-3.65,30.51c-7.97,30.59-26.53,50.9-57.58,58.84c-23.52,6.01-47.13,6.1-70.68,0.1
		c-32.11-8.19-50.61-29.44-57.63-61.17c-1.65-7.46-2.52-15.24-2.58-22.89c-0.28-38.14-0.18-76.28-0.18-114.42
		C1314.59,415.19,1314.96,413.04,1315.3,409.42z"/>
	<path class="st0" d="M1523.22,580.78c9.72-12.38,19.6-24.05,29.25-35.18c4.61-0.42,6.78,2.47,9.42,4.23
		c12.04,8.01,24.98,13.85,39.18,16.72c9.41,1.9,18.96,2.29,28.46,1.08c3.51-0.45,7.2-1.77,10.17-3.68
		c7.55-4.87,7.85-15.05,0.62-20.43c-3.17-2.36-6.94-4.19-10.71-5.41c-7.65-2.47-15.51-4.31-23.26-6.49
		c-10.22-2.87-20.47-5.64-30.61-8.79c-8.09-2.51-15.62-6.37-22.44-11.42c-12.81-9.48-20.51-21.92-20.75-38.13
		c-0.11-7.29-0.07-14.79,1.47-21.85c3.62-16.62,13.63-28.95,28.12-37.69c9.55-5.76,19.95-9.66,30.92-10.82
		c22.77-2.41,45.4-1.72,67.36,5.95c10.81,3.77,20.93,8.82,30.23,15.48c1.72,1.23,3.19,2.82,4.64,4.12
		c-4.16,8.84-20.82,32.41-27.58,39.07c-3.02-1.74-6.15-3.53-9.29-5.33c-12.22-7.01-25.29-11.54-39.25-13.5
		c-6.98-0.98-13.9-0.95-20.62,1.55c-3.57,1.33-6.41,3.6-8.19,6.98c-2.75,5.22-1.33,12.2,3.95,15.6c4.25,2.74,9.05,4.9,13.89,6.37
		c8.75,2.64,17.73,4.56,26.6,6.79c11.03,2.77,22.06,5.65,32.22,10.83c6.17,3.14,12.32,6.63,17.7,10.93
		c10.84,8.67,16.84,20.28,17.16,34.27c0.17,7.29,0.25,14.8-1.23,21.87c-3.77,17.89-14.58,30.89-30.37,39.83
		c-12.03,6.81-25.21,10.11-38.81,11.15c-26.75,2.05-52.64-1.88-77.27-12.91c-9.41-4.22-18.15-9.59-26.2-16.03
		C1526.39,584.6,1525.12,582.83,1523.22,580.78z"/>
	<path class="st0" d="M1287.75,444.38c-14.4,11.42-27.99,21.84-41.55,32.22c-5.57-4.96-10.2-9.69-15.42-13.62
		c-13.53-10.18-28.73-12.31-44.83-7.76c-13.87,3.92-23.67,13.05-29.86,25.81c-9.04,18.62-9,37.6-0.13,56.24
		c14.53,30.51,49.98,35.6,73.71,19.47c3.91-2.66,7.31-6.08,10.89-9.22c2.17-1.9,4.23-3.92,6.17-5.73
		c9.18,4.45,35.43,23.29,41.59,29.87c-9.37,13.23-20.74,24.28-35.09,32.28c-30.2,16.83-77.85,17.92-109.72-1.41
		c-29.85-18.1-46.85-44.66-50.99-79.27c-3.66-30.56,3.6-58.32,23.04-82.38c17.61-21.8,40.72-33.92,68.45-37.93
		c16.64-2.4,32.96-1.3,49.02,2.91C1255.48,411.72,1273.24,424.63,1287.75,444.38z"/>
	<polygon class="st0" points="317.65,327.82 317.65,509.1 474.57,418.46 	"/>
	<polygon class="st1" points="391.3,509.1 391.3,690.38 548.22,599.74 	"/>
	<polygon class="st0" points="199.25,482.47 199.25,663.76 356.18,573.11 	"/>
	<polygon class="st0" points="724.78,609.94 669.07,609.94 669.07,407.88 829.96,407.88 829.96,456.98 724.59,456.98 724.59,490.22 
		819.39,490.22 819.39,536.29 724.21,536.29 	"/>
</g>
</svg>
